<svg width="20" height="20" viewBox="0 0 20 20"  xmlns="http://www.w3.org/2000/svg">
<path d="M10.7809 5.39124V9.6766L13.6245 12.5211C13.771 12.6675 13.8533 12.8662 13.8533 13.0733C13.8533 13.2805 13.771 13.4791 13.6245 13.6256C13.4781 13.7721 13.2794 13.8544 13.0723 13.8544C12.8651 13.8544 12.6665 13.7721 12.52 13.6256L9.44727 10.5529C9.30064 10.4064 9.21824 10.2076 9.21818 10.0002V5.39124C9.21818 5.18401 9.3005 4.98527 9.44704 4.83874C9.59357 4.69221 9.79231 4.60989 9.99954 4.60989C10.2068 4.60989 10.4055 4.69221 10.5521 4.83874C10.6986 4.98527 10.7809 5.18401 10.7809 5.39124ZM13.0727 0.000457753H6.92728C5.25655 -0.00214429 3.64157 0.601196 2.38182 1.6986V0.781343C2.38182 0.574117 2.29949 0.37538 2.15296 0.228849C2.00643 0.0823181 1.80768 0 1.60045 0C1.39322 0 1.19448 0.0823181 1.04795 0.228849C0.901412 0.37538 0.819092 0.574117 0.819092 0.781343V3.854C0.819572 4.06096 0.901996 4.25931 1.04834 4.40565C1.19469 4.55199 1.39304 4.63442 1.6 4.6349H4.67273C4.87996 4.6349 5.0787 4.55257 5.22523 4.40604C5.37177 4.25951 5.45409 4.06077 5.45409 3.85355C5.45409 3.64632 5.37177 3.44758 5.22523 3.30105C5.0787 3.15452 4.87996 3.0722 4.67273 3.0722H3.19545C4.19608 2.10617 5.53186 1.56503 6.92273 1.56224H13.0682C14.4901 1.56417 15.8533 2.12987 16.8587 3.1353C17.8642 4.14074 18.4299 5.50385 18.4318 6.92575V13.0711C18.4299 14.493 17.8642 15.8561 16.8587 16.8615C15.8533 17.867 14.4901 18.4327 13.0682 18.4346H6.92273C5.50079 18.4327 4.13765 17.867 3.13219 16.8615C2.12673 15.8561 1.56101 14.493 1.55909 13.0711V10.0002C1.54733 9.80146 1.46008 9.61469 1.31518 9.47811C1.17027 9.34154 0.978668 9.26547 0.779544 9.26547C0.580419 9.26547 0.38882 9.34154 0.243919 9.47811C0.0990174 9.61469 0.0117625 9.80146 0 10.0002V13.0729C0.0019252 14.9095 0.732378 16.6703 2.03108 17.969C3.32978 19.2676 5.09064 19.9981 6.92728 20H13.0727C14.9094 19.9981 16.6702 19.2676 17.9689 17.969C19.2676 16.6703 19.9981 14.9095 20 13.0729V6.92757C19.9981 5.09097 19.2676 3.33016 17.9689 2.03149C16.6702 0.732826 14.9094 0.00238291 13.0727 0.000457753Z" fill="#7A91D2"/>
</svg>
