<svg width="22" height="22" viewBox="0 0 22 22" fill="none" xmlns="http://www.w3.org/2000/svg">
<path d="M21.4074 9.5706L12.4334 0.593426C12.2454 0.405288 12.0222 0.25605 11.7765 0.154229C11.5307 0.0524083 11.2674 0 11.0014 0C10.7355 0 10.4721 0.0524083 10.2264 0.154229C9.98074 0.25605 9.75749 0.405288 9.56945 0.593426L0.599446 9.56559L0.590447 9.5746C0.3132 9.85287 0.122869 10.2058 0.0426605 10.5904C-0.0375482 10.975 -0.0041714 11.3746 0.138722 11.7406C0.281616 12.1065 0.527855 12.423 0.847417 12.6514C1.16698 12.8798 1.54606 13.0102 1.93845 13.0268C1.95945 13.0268 1.98045 13.0268 2.00145 13.0268H2.35945V19.6292C2.36024 20.2577 2.61019 20.8603 3.05448 21.3047C3.49877 21.7492 4.10113 21.9992 4.72945 22H8.24045C8.41134 21.9997 8.57514 21.9316 8.69589 21.8107C8.81663 21.6897 8.88445 21.5257 8.88445 21.3548V16.1749C8.88498 15.8881 8.99918 15.6132 9.202 15.4105C9.40483 15.2078 9.67974 15.0938 9.96645 15.0935H12.0374C12.3242 15.0938 12.5991 15.2078 12.8019 15.4105C13.0047 15.6132 13.1189 15.8881 13.1194 16.1749V21.3548C13.1194 21.5257 13.1873 21.6897 13.308 21.8107C13.4288 21.9316 13.5926 21.9997 13.7634 22H17.2744C17.9028 21.9992 18.5051 21.7492 18.9494 21.3047C19.3937 20.8603 19.6437 20.2577 19.6444 19.6292V13.0268H19.9764C20.3769 13.0268 20.7684 12.908 21.1015 12.6855C21.4345 12.463 21.6942 12.1467 21.8476 11.7767C22.0011 11.4066 22.0415 10.9993 21.9636 10.6063C21.8858 10.2133 21.6933 9.85221 21.4104 9.5686L21.4074 9.5706ZM20.4944 11.5233C20.4262 11.592 20.345 11.6465 20.2556 11.6835C20.1662 11.7206 20.0703 11.7396 19.9734 11.7394H19.0074C18.8364 11.7394 18.6723 11.8073 18.5514 11.9284C18.4304 12.0494 18.3624 12.2135 18.3624 12.3846V19.6362C18.3619 19.9228 18.2479 20.1976 18.0452 20.4002C17.8426 20.6029 17.568 20.717 17.2814 20.7175H14.4074V16.1829C14.4067 15.5542 14.1566 14.9515 13.7121 14.507C13.2676 14.0625 12.6649 13.8126 12.0364 13.8121H9.96845C9.33995 13.8126 8.73734 14.0625 8.29284 14.507C7.84833 14.9515 7.59824 15.5542 7.59745 16.1829V20.7175H4.73145C4.44491 20.717 4.17026 20.6029 3.96765 20.4002C3.76504 20.1976 3.65098 19.9228 3.65045 19.6362V12.3846C3.65045 12.2135 3.58249 12.0494 3.46153 11.9284C3.34057 11.8073 3.17651 11.7394 3.00545 11.7394H2.01545C1.8709 11.7371 1.73021 11.6923 1.611 11.6105C1.49179 11.5287 1.39935 11.4135 1.34523 11.2794C1.29112 11.1453 1.27774 10.9982 1.30677 10.8565C1.33581 10.7149 1.40595 10.5849 1.50845 10.4829L10.4824 1.50575C10.5508 1.43736 10.6319 1.38312 10.7212 1.3461C10.8106 1.30909 10.9063 1.29004 11.0029 1.29004C11.0996 1.29004 11.1953 1.30909 11.2846 1.3461C11.374 1.38312 11.4551 1.43736 11.5234 1.50575L20.4954 10.4809C20.6327 10.6192 20.7098 10.8062 20.7098 11.0011C20.7098 11.196 20.6327 11.383 20.4954 11.5213L20.4944 11.5233Z" fill="white"/>
</svg>
